<?xml version="1.0" encoding="UTF-8"?>
<svg id="Vrstva_2" xmlns="http://www.w3.org/2000/svg" version="1.1" viewBox="0 0 1922.6 312.3">
  <!-- Generator: Adobe Illustrator 30.2.1, SVG Export Plug-In . SVG Version: 2.1.1 Build 1)  -->
  <defs>
    <style>
      .st0 {
        fill: #002b40;
      }

      .st1 {
        fill: #e94e1b;
      }
    </style>
  </defs>
  <g>
    <path class="st0" d="M362.5,64.5c12,0,29,.6,41.6,12,14.5,13.4,15.4,34.5,15.4,43v88c0,13.7-1.4,28.2-12.8,40.7-12.5,13.7-29,15.7-40.2,15.7h-42.4V64.5h38.5,0ZM352.5,236h12.8c6,0,13.4-.9,19.1-6.8,6-6.6,6.5-16.8,6.5-23.4v-88.3c0-5.7-.8-12.8-5.4-18.5-5.4-6.6-11.4-6.6-18.5-6.6h-14.5v143.6h0Z"/>
    <path class="st0" d="M481,64.5v151.2c0,13.7,6.5,23.1,19.1,23.1s19.1-9.4,19.1-23.1V64.5h28.5v147c0,43.9-26.2,55.3-47.6,55.3s-47.6-11.4-47.6-55.3V64.5h28.5Z"/>
    <path class="st0" d="M647.6,109.8c0-4-1.1-9.4-3.7-13.1-1.4-2-5.7-7.1-14.8-7.1s-12,3.1-14.8,6.6c-4.6,5.7-4.8,12.8-4.8,19.7v98.3c0,6.6,0,12.5,3.7,17.7,2,2.9,6.5,7.1,14.5,7.1s12.5-2.3,16-6.8c1.4-2,4-6.6,4-16.2v-7.1h28.5v8.3c0,19.6-6.8,31.1-12,36.5-6,6.6-17.7,13.4-37.3,13.4s-29.6-7.7-35.9-15.1c-10.2-12-10-25.6-10-35.9v-103.4c0-13.1,1.7-27.9,14.5-39,8.8-8,21.9-11.7,32.5-11.7s25.9,4.6,34.5,12.8c7.1,7.1,12.8,19.1,12.8,33v13.7h-27.6v-11.4h0Z"/>
    <path class="st0" d="M734.4,64.5v96l45.3-96h29.9l-40.5,81.8,47.8,117.6h-31l-33.9-89.2-17.7,30.8v58.4h-28.5V64.5h28.5Z"/>
    <path class="st0" d="M884,179.9v84h-28.5v-84.9l-41.9-114.5h31.3l24.8,79.2h1.7l24.2-79.2h30.2l-41.9,115.4h0ZM852.4,46.3l14.2-29.9h34.5l-30.2,29.9h-18.5Z"/>
    <path class="st1" d="M1049.5,64.5c14.5,0,35.6-.8,49,15.7,6.6,8,10.5,19.9,10.5,34.8v15.1c0,12.8-4.6,24.8-10.5,31.6-4.3,4.8-10,8.3-15.1,10.2l31.3,92h-29.6l-27.6-86h-16.8v86h-28.5V64.5h37.3ZM1040.6,152.2h16.2c6.3,0,12.2-1.4,17.7-6.6,5.7-5.4,6-10.2,6-17.9v-14.2c0-7.7-2.8-14.5-6.6-18.2-5.7-5.7-12.5-5.1-18.5-5.1h-14.8v62.1h0Z"/>
    <path class="st1" d="M1138.9,64.5h84.6v27.1h-56.1v58.7h49.6v25.6h-49.6v61h57v27.1h-85.4V64.5h0Z"/>
    <path class="st1" d="M1320.9,263.9l-9.4-42.7h-36.5l-9.4,42.7h-28.5l43.6-199.4h25.1l43.6,199.4h-28.5ZM1292.7,120.1l-14.8,75.8h30.2l-15.4-75.8h0Z"/>
    <path class="st1" d="M1397.8,64.5v172.3h60.4v27.1h-88.9V64.5h28.5Z"/>
    <path class="st1" d="M1513.7,64.5v199.4h-28.5V64.5h28.5Z"/>
    <path class="st1" d="M1635.6,64.5v27.1h-35.3v172.3h-28.5V91.6h-35.3v-27.1h99.1,0Z"/>
    <path class="st1" d="M1711.7,179.9v84h-28.5v-84.9l-41.9-114.5h31.3l24.8,79.2h1.7l24.2-79.2h30.2l-41.9,115.4h0Z"/>
  </g>
  <g>
    <polygon class="st1" points="75.2 118.3 75.2 269 58.9 278.4 58.9 133.9 75.2 118.3"/>
    <polygon class="st1" points="108.3 86.9 108.3 249.9 93.4 258.5 93.4 101.1 108.3 86.9"/>
    <polygon class="st1" points="146.8 99.4 146.8 257.5 133.7 249.9 133.7 86.9 146.8 99.4"/>
    <polygon class="st1" points="183.2 133.9 183.2 278.4 165 267.9 165 116.6 183.2 133.9"/>
    <path class="st1" d="M242.1,121v191.3l-48-27.7V127.5l-29.1-27.6-2.3-2.2-29-27.5-3.9-3.7-8.8-8.3-8.8,8.3-3.9,3.7-28.9,27.5-4.2,3.9-27.2,25.9v157.2L0,312.3V121C0,87.6,13.5,57.4,35.4,35.4,57.4,13.5,87.6,0,121,0c66.8,0,121,54.2,121,121Z"/>
  </g>
</svg>